<svg width="200" height="326" viewBox="0 0 200 326" fill="none" xmlns="http://www.w3.org/2000/svg">
    <style>
        :root {
        --background-color: #e8e8e3;
        --text-color: var(--text-color);
        --darker-text-color: #6F6F6F;
        }

        @media (prefers-color-scheme: dark) {
        :root {
        --background-color: var(--text-color);
        --text-color: #b7ab98;
        }
        }
    </style>
    <path fill-rule="evenodd" clip-rule="evenodd"
        d="M19 127H1V145V145.12V163V163.12V181V181.12V199.12H19H19.12H37H37.12H55H55.12H73.12V181.12V181V163.12V163V145.12V145V127H55.12H55H37.12H37H19.12H19Z"
        fill="var(--text-color)" fill-opacity="0.5" />
    <path fill-rule="evenodd" clip-rule="evenodd"
        d="M73 1H91H91.12H109H109.12H127H127.12H145H145.12H163H163.12H181H181.12H199.12V19V19.12V37V37.12V55V55.12V73V73.12V91V91.12V109V109.12V127.12H181.12H181H163.12H163H145.12H145H127.12H127H109.12H109H91.12H91H73V109.12V109V91.12V91V73.12V73V55.12V55V37.12V37V19.12V19V1Z"
        fill="var(--text-color)" fill-opacity="0.5" />
    <path fill-rule="evenodd" clip-rule="evenodd"
        d="M81.5 135.5L73 127V145V145.12V163V163.12V181V181.12V199H55.12H55H37.12H37H19.12H19H1L10 208L19 217V217.12H19.12L28 226L37 235V235.12H37.12L46 244L55 253V253.12H55.12L64 262L73 271V271.12H73.12L82 280L91 289V289.12H91.12L100 298L109 307V307.12H109.12L118 316L127 325V325.12H127.12H145H145.12H163H163.12H181H181.12H199.12V307.12V307V289.12V289V271.12V271V253.12V253H199L189.5 243.5L181.12 235.12V235H181L171.5 225.5L163.12 217.12V217H163L153.5 207.5L145.12 199.12V199H145L135.5 189.5L127.12 181.12V181H127L117.5 171.5L109.12 163.12V163H109L99.5 153.5L91.12 145.12V145H91L81.5 135.5Z"
        fill="var(--text-color)" fill-opacity="0.5" />
    <path
        d="M1 325C1 325 199.5 253 199 127C198.5 1 91 1 73 1C55 1 1 19 1 73C1 127 50.5 127 55 127C59.5 127 73 125.5 73 109C73 92.5 55 91 55 91"
        stroke="var(--text-color)" />
    <line x1="1.35214" y1="199.645" x2="127.352" y2="324.645" stroke="var(--text-color)" />
    <line x1="73.3564" y1="126.649" x2="197.356" y2="252.649" stroke="var(--text-color)" />
</svg>
    